<svg xmlns="http://www.w3.org/2000/svg" version="1.1" xmlns:xlink="http://www.w3.org/1999/xlink" xmlns:svgjs="http://svgjs.dev/svgjs" viewBox="0 0 800 800" opacity="1"><defs><linearGradient x1="50%" y1="0%" x2="50%" y2="100%" id="uundulate-grad"><stop stop-color="hsl(206, 75%, 49%)" stop-opacity="1" offset="45%"></stop><stop stop-color="hsl(331, 90%, 56%)" stop-opacity="1" offset="100%"></stop></linearGradient></defs><g stroke-width="2" stroke="url(#uundulate-grad)" fill="none"><path d="M1046.0390178434816 -5.904166744414169C1104.6935070829727 190.36573776835894 1072.797037154592 404.521901148177 963.564292673181 696.29888012632C854.3315481917698 988.075859104463 776.0700792695798 1330.7208384162732 521.721844332707 1394.6253323506735C267.3736093958338 1458.5298262850738 -156.84996797538315 1245.2906242986373 -257.307235023808 1003.0404510114424C-357.76450207223286 760.790277724248 0.6157510789917069 563.1207996629178 39.52696250026543 231.8245005721401C78.43817392153926 -99.47179851863712 -204.38670808156138 -487.6773758519696 -70.5334202016951 -587.181784624289C63.31986767817125 -686.6861933966084 449.40348639754666 -366.8961652599644 682.0227443236254 -245.79666153499056C914.6420022497043 -124.69715781001673 987.3845286039905 -202.17407125718728 1046.0390178434816 -5.904166744414169C1104.6935070829727 190.36573776835894 1072.797037154592 404.521901148177 963.564292673181 696.29888012632 "></path><path d="M1022.1116389002768 9.129318652225038C1078.5937396494164 198.1299674423026 1047.878620459124 404.35442106731284 942.6915331807279 685.3248452684877C837.5044459023322 966.2952694696621 762.1415499031864 1296.2496939921457 517.2136199639751 1357.787354817865C272.2856900247641 1419.3250156435838 -136.2259029993707 1213.9835618788666 -232.96253052748352 980.7056172319387C-329.69915805559634 747.4276725850104 15.407752386323637 557.0792863037298 52.87780782903155 238.05322051261078C90.3478632717397 -80.9728452785082 -182.00202310161637 -454.8004382661617 -53.10626440248586 -550.6194985654322C75.78949429664453 -646.4385588647028 447.5737197301171 -338.49260584423075 671.5774495848596 -221.87826892388557C895.5811794396022 -105.26393200354039 965.6295381511372 -179.87133013785274 1022.1116389002768 9.129318652225038C1078.5937396494164 198.1299674423026 1047.878620459124 404.35442106731284 942.6915331807279 685.3248452684877 "></path><path d="M998.1842904746502 24.162773531286007C1052.494002733438 205.89416659866856 1022.9602342812339 404.18691046887056 921.8188042058532 674.3507798930771C820.6773741304726 944.5146493172836 748.2130510543707 1261.7785190504405 512.7054261128217 1320.9493467674783C277.19780117127266 1380.1201744845157 -115.60180750578013 1182.6764689415186 -208.61779551358092 958.3707529348569C-301.6337835213817 734.0650369281952 30.199784211233577 551.0377424269636 66.22868367537603 244.2819099355031C102.25758313951837 -62.473922555957415 -159.6173076040933 -421.92353119793194 -35.67907808569862 -514.0572430241536C88.25915143269617 -606.1909548503752 445.7439835802659 -310.08907694607524 661.1321853636723 -197.9599068303587C876.5203871470785 -85.83073671464217 943.8745782158624 -157.56861953609632 998.1842904746502 24.162773531286007C1052.494002733438 205.89416659866856 1022.9602342812339 404.18691046887056 921.8188042058532 674.3507798930771 "></path><path d="M974.2569420490236 39.19625892792533C1026.39426581746 213.65839627261244 998.0418481033439 404.0194303880062 900.9460752309785 663.3767450352445C803.8503023586131 922.7340596824827 734.2845522055554 1227.3073746263135 508.1972322616682 1284.1113692346698C282.1099123177812 1340.9153638430257 -94.9777120121895 1151.3694065217485 -184.2730604996783 936.0359191553534C-273.56840898716706 720.7024317889582 44.99181603614363 544.9962290677759 79.57955952172028 250.51062987597356C114.16730300729705 -43.9749693158285 -137.23259210657017 -389.046593612124 -18.251891768911264 -477.4949569652968C100.72880856874758 -565.9433203184697 443.91424743041455 -281.6855175303416 650.6869211424846 -174.0415142192537C857.4595948545548 -66.39751090816594 922.1196182805872 -135.2658784167619 974.2569420490236 39.19625892792533C1026.39426581746 213.65839627261244 998.0418481033439 404.0194303880062 900.9460752309785 663.3767450352445 "></path><path d="M950.3295325882407 54.22977484214255C1000.2944678663257 221.42265646413443 973.1234008902977 403.85198082472016 880.0732852209476 652.4027406949901C787.0231695515972 900.9535005652601 720.3559923215835 1192.8362607197648 503.68897737535826 1247.2734222194395C287.0219624291334 1301.7105837191139 -74.35367755375523 1120.0623746195565 -159.92838652093195 913.7011158934279C-245.50309548810867 707.339857167299 59.78378682589744 538.9547462261662 92.9303743329084 256.73938033402237C126.07696183991948 -25.475985558121465 -114.84793764420334 -356.169625508738 -0.8247664872801579 -440.93264038886196C113.19840466964297 -525.6956552689859 442.0844502454071 -253.28192759702983 640.2415958861411 -150.1230910905706C838.3987415268748 -46.96425458411136 900.3645973101559 -112.96310677984934 950.3295325882407 54.22977484214255C1000.2944678663257 221.42265646413443 973.1234008902977 403.85198082472016 880.0732852209476 652.4027406949901 "></path><path d="M926.402184162614 69.26326023878175C974.1947309503475 229.1868861380783 948.2050147124078 403.684500743856 859.2005562460727 641.4287058371578C770.1960977797378 879.1729109304592 706.4274934727682 1158.3651162956378 499.1807835242049 1210.4354446866307C291.93407357564183 1262.5057730776239 -53.7295820601646 1088.7553121997867 -135.5836515070293 891.3662821139242C-217.43772095389403 693.9772520280619 74.57581865080738 532.913232866978 106.28125017925277 262.9681002744928C137.98668170769804 -6.977032317992553 -92.46322214668021 -323.2926879229301 16.6024198295072 -404.37035433000517C125.66806180569449 -485.44802073708024 440.25471409555576 -224.8783681812962 629.7963316649534 -126.2046984794656C819.3379492343511 -27.53102877763513 878.6096373748808 -90.6603656605148 926.402184162614 69.26326023878175C974.1947309503475 229.1868861380783 948.2050147124078 403.684500743856 859.2005562460727 641.4287058371578 "></path><path d="M902.4748357369874 84.29674563542085C948.0949940343694 236.95111581202207 923.2866285345178 403.51702066299185 838.3278272711982 630.4546709793253C753.3690260078783 857.3923212956588 692.4989946239525 1123.8939718715108 494.67258967305145 1173.5974671538224C296.8461847221504 1223.300962436134 -33.10548656657403 1057.4482497800163 -111.23891649312668 869.0314483344205C-189.3723464196794 680.6146468888248 89.36785047571743 526.8717195077902 119.63212602559702 269.1968202149633C149.8964015754766 11.52192092213636 -70.07850664915713 -290.4157503371222 34.02960614629444 -367.8080682711484C138.13771894174602 -445.2003862051746 438.42497794570454 -196.47480876556256 619.3510674437659 -102.28630586836061C800.2771569418271 -8.097802971158899 856.8546774396054 -68.35762454118026 902.4748357369874 84.29674563542085C948.0949940343694 236.95111581202207 923.2866285345178 403.51702066299185 838.3278272711982 630.4546709793253 "></path><path d="M878.5474567937827 99.33026154963818C921.9952266008131 244.71537600354418 898.3682118390498 403.3495710997058 817.4550677787452 619.4806666390709C736.5419237184406 835.611762178436 678.5704652575591 1089.422857964962 490.16436530431986 1136.759520138592C301.7582653510806 1184.096182312222 -12.481421590561581 1026.1412178778244 -86.8942119968022 846.6966450724951C-161.30700240304282 667.2520722671657 104.15985178304936 520.8302366661803 132.98297135436326 275.42557067301186C161.80609092567715 30.020904679843397 -47.69382166921213 -257.5387822337362 51.45676194550367 -331.2457516947135C150.60734556021941 -404.9527211556908 436.5952112782752 -168.0712188322508 608.9057727050003 -78.36788273967761C781.2163341317253 11.335453352895684 835.0996869867522 -46.054852904267705 878.5474567937827 99.33026154963818C921.9952266008131 244.71537600354418 898.3682118390498 403.3495710997058 817.4550677787452 619.4806666390709 "></path><path d="M854.6201388857344 114.36374694627739C895.8955202024131 252.47960567748805 873.4498561787377 403.1820910188417 796.5823693214486 608.5066317812384C719.7148824641592 813.8311725436354 664.6419969263218 1054.951713540835 485.6562019707444 1099.9215426057835C306.67040701516726 1144.8913716707318 8.142704420607117 994.834155458054 -62.549446465321466 824.3618112929914C-133.2415973512501 653.8894671279286 118.95191412553754 514.7887233069923 146.33387771828575 281.65429061348243C173.71584131103396 48.51985791997231 -25.309075654110927 -224.66184464792826 68.8839787798691 -294.68346563585675C163.07703321384906 -364.7050866237852 434.7655056460021 -139.66765941651715 598.4605390013908 -54.44949012857262C762.1555723567799 30.768679159371914 813.3447575690552 -23.752111784933277 854.6201388857344 114.36374694627739C895.8955202024131 252.47960567748805 873.4498561787377 403.1820910188417 796.5823693214486 608.5066317812384 "></path><path d="M830.6926989073731 129.39720182533847C869.7956917337006 260.2438048338539 848.5313784481136 403.0145804203994 775.7095487938395 597.5325664058278C702.8877191395654 792.0505523912566 650.7134065247719 1020.4805385991299 481.14791656685657 1063.083534555397C311.5824266089413 1105.6865305116637 28.766708361463316 963.5270625207061 -38.204803004153234 802.0269469959096C-105.17631436976978 640.5268314711132 133.74385439771322 508.7471794302264 159.68466201189563 287.88298003637476C185.62546962607826 67.0187806425231 -2.9244517093221702 -191.78493757969852 86.31107354392202 -258.1212100945781C175.5465987971662 -324.45748260945766 432.9356779434165 -111.26413051836164 588.015183227469 -30.531128035045754C743.0946885115216 50.20187444827013 791.5897060810457 -1.4494011831768603 830.6926989073731 129.39720182533847C869.7956917337006 260.2438048338539 848.5313784481136 403.0145804203994 775.7095487938395 597.5325664058278 "></path><path d="M806.7653199641684 144.43068722197768C843.6959243001443 268.0080345077977 823.6129617526453 402.84710033953513 754.8367893013865 586.5585315479957C686.0606168501276 770.2699627564557 636.7848771583783 986.0093941750029 476.639692198125 1026.2455570225882C316.49450723787163 1066.4817198701737 49.390773337475764 932.2200001009357 -13.860098507828752 779.6921132164059C-77.11097035313333 627.1642263318759 148.53585570504515 502.70566607103865 173.03550734066187 294.1116999768452C197.5351589762788 85.51773388265201 19.460233270622837 -158.9079999938906 103.73822934313125 -221.5589240357213C188.0162254156396 -284.20984807755207 431.10591127598695 -82.860571102628 577.5698884887033 -6.612735423940762C724.0338657014195 69.63510025474648 769.8347156281925 20.853339936157568 806.7653199641684 144.43068722197768C843.6959243001443 268.0080345077977 823.6129617526453 402.84710033953513 754.8367893013865 586.5585315479957 "></path><path d="M782.8380020561199 159.464203136195C817.5962179017442 275.7722946993197 798.6946060923335 402.6796507762491 733.9640908440899 575.5845272077413C669.2335755958462 748.4894036392334 622.8564088271411 951.538280268454 472.13152886454964 989.407610007358C321.4066489019583 1027.2769397462619 70.01489934864446 900.9129681987438 10.48466702365198 757.3573099544803C-49.0455653013405 613.8016517102169 163.32791804753322 496.66418322942855 186.38641370458436 300.3404504348939C209.4449093616355 104.01671764035916 41.84497928572404 -126.03103189050455 121.16544617749668 -184.9966074592864C200.48591306926926 -243.9621830280683 429.27620564371387 -54.456981169316236 567.124654785094 17.30568770474224C704.9731039264739 89.06835657880083 748.0797862104955 43.156111573070234 782.8380020561199 159.464203136195C817.5962179017442 275.7722946993197 798.6946060923335 402.6796507762491 733.9640908440899 575.5845272077413 "></path><path d="M758.9105620777589 174.49762749767797C791.4963894330317 283.5364633381073 773.7761283617092 402.5121096602286 713.0912703164809 564.6104313147525C652.4064122712524 726.7087529692762 608.9278184255912 917.0670748091707 467.6232434606618 952.5695714393933C326.31866849573225 988.0720680696156 90.63890328950066 869.6058447438174 34.82931048482021 735.0224151398206C-20.980282319860294 600.4389855358236 178.1198583197089 490.6226088350845 199.73719799819435 306.5691093402081C221.3545376766798 122.51560984533171 64.2296032305128 -93.15415533985288 138.5925409415496 -148.43438243558592C212.9554786525864 -203.7146095313189 427.4463779411283 -26.053482788738904 556.679299011172 41.22401928069098C685.9122200812159 108.50152135012092 726.324734722486 65.45879165724841 758.9105620777589 174.49762749767797C791.4963894330317 283.5364633381073 773.7761283617092 402.5121096602286 713.0912703164809 564.6104313147525 "></path><path d="M734.9832136521322 189.5311434118952C765.3966525170536 291.3007235296293 748.857742183819 402.34466009694256 692.2185413416059 553.6364269744981C635.5793404993929 704.9281938520537 594.9993195767757 882.5959609026218 463.11504960950833 915.7316244241629C331.2307796422408 948.8672879457038 111.26299878309129 838.2988128416255 59.17404549872282 712.687611877895C7.085092214354404 587.0764109141644 192.91189014461895 484.58112599347464 213.0880738445387 312.7978597982567C233.26425754445836 141.01459360303886 86.61431872803587 -60.27718723646689 156.01972725833696 -111.87206585915101C225.42513578863793 -163.46694448183513 425.61664179127706 2.35010714457286 546.2340347899845 65.1424424093741C666.851427788692 127.9347776741754 704.569774787211 87.76156329416108 734.9832136521322 189.5311434118952C765.3966525170536 291.3007235296293 748.857742183819 402.34466009694256 692.2185413416059 553.6364269744981 "></path><path d="M711.0558347089275 204.56465932611252C739.2968850834973 299.0649837211513 723.9393254883511 402.1772105336564 671.345781849153 542.6624226342439C618.7522382099552 683.1476347348312 581.0707902103823 848.1248469960728 458.60682524077663 878.8936774089325C336.1428602711711 909.6625078217919 131.88706375910374 806.9917809394333 83.5187499950473 690.3528086159695C35.15043623099092 573.7138362925052 207.70389145195088 478.5396431518649 226.43891917330484 319.0266102563054C245.1739468946589 159.5135773607459 108.99900370798088 -27.40021913308084 173.44688305754613 -75.3097492827161C237.89476240711133 -123.21927943235141 423.7868751238476 30.753697077884624 535.7887400512188 89.06086553805721C647.7906049785902 147.36803399822975 682.8147843343577 110.06433493107363 711.0558347089275 204.56465932611252C739.2968850834973 299.0649837211513 723.9393254883511 402.1772105336564 671.345781849153 542.6624226342439 "></path><path d="M687.1284557657227 219.59814472275173C713.197117649941 306.8292133950953 699.0209087928829 402.00973045279216 650.4730223567002 531.6883877764113C601.9251359205175 661.3670451000303 567.1422608439887 813.6537025719458 454.09860087204504 842.055699876124C341.05494090010154 870.4576971803019 152.5111287351162 775.6847185196634 107.86345449137178 668.0179748364658C63.215780247627436 560.3512311532681 222.49589275928275 472.498129792677 239.78976450207108 325.25533019677584C257.08363624485946 178.0125306008748 131.38368868792583 5.476718452727027 190.8740388567553 -38.74746322385937C250.36438902558473 -82.97164490044577 421.95710845641815 59.15725649361826 525.3434453124532 112.9792581491622C628.7297821684883 166.8012598047061 661.0597938815046 132.36707605040806 687.1284557657227 219.59814472275173C713.197117649941 306.8292133950953 699.0209087928829 402.00973045279216 650.4730223567002 531.6883877764113 "></path><path d="M663.2011073400961 234.63163011939082C687.0973807339628 314.59344306903915 674.102522614993 401.842250371928 629.6002933818254 520.7143529185789C585.098064148658 639.5864554652296 553.2137619951732 779.1825581478188 449.59040702089146 805.2177223433155C345.96705204661 831.2528865388119 173.13522422870676 744.3776560998933 132.2081895052744 645.6831410569621C91.28115478184208 546.988626014031 237.28792458419275 466.456616433489 253.14064034841545 331.4840501372464C268.9933561126381 196.51148384100372 153.76840418544896 38.35365603853495 208.30122517354266 -2.1851771650025853C262.8340461616363 -42.72401036854012 420.12737230656694 87.5608159093519 514.8981810912658 136.8976507602672C609.6689898759646 186.23448561118244 639.3048339462295 154.6698171697426 663.2011073400961 234.63163011939082C687.0973807339628 314.59344306903915 674.102522614993 401.842250371928 629.6002933818254 520.7143529185789 "></path><path d="M639.2737436556804 249.66517655118628C660.9976285591956 322.3577337781393 649.184121178314 401.6748313262201 608.7275491481616 509.74037909590265C568.2709771180093 617.8059268655852 539.2852478875686 744.7114747588482 445.08219791094893 768.3798058456632C350.87914793432935 792.0481369324782 193.75930446350827 713.0706547152795 156.55290926038793 623.3483683126148C119.34651405726765 533.62608190995 252.07994115031374 460.41516410945735 266.4915009359707 337.7128311128731C280.90306072162764 215.0104981162889 176.15310442418297 71.23065465949912 225.7283962315409 34.37716992901045C275.30368803889877 -2.4763148014782246 418.29762089792666 115.96443636024179 504.45290161128924 160.81610440652838C590.6081823246517 205.66777245281503 617.5498587521652 176.97261932423334 639.2737436556804 249.66517655118628C660.9976285591956 322.3577337781393 649.184121178314 401.6748313262201 608.7275491481616 509.74037909590265 "></path><path d="M615.3463341948975 264.69860091266924C634.8978306080612 330.121902416927 624.2656739652678 401.5072902101997 587.8547591381307 498.7662832029139C551.4438443109937 596.0252761956283 525.3566880035969 710.2402692995649 440.5739430246392 731.5417672776985C355.79119804568154 752.8432652558317 214.3833389219426 681.763531260353 180.8975832391343 601.0134734979548C147.41182755632605 520.2634157355566 266.87191194006755 454.3735897151132 279.84231574715875 343.9414900181873C292.81271955425007 233.50939032126155 198.53775888654985 104.10753121015074 243.15552151317195 70.93939495271098C287.77328413979404 37.77125869527117 416.4678237129192 144.36793474081918 494.0075763549455 184.73443598247712C571.5473289969717 225.10093722413507 595.7948377817338 199.27529940841157 615.3463341948975 264.69860091266924C634.8978306080612 330.121902416927 624.2656739652678 401.5072902101997 587.8547591381307 498.7662832029139 "></path><path d="M591.4190010280599 279.73211682688657C608.7981089508721 337.8861626084489 599.3473030461668 401.3398406469137 566.982045422045 487.7922788626597C534.616787797923 574.2447170784058 511.4282044135705 675.769155393016 436.0657644322748 694.7038202624681C360.70332445097915 713.63848513192 235.00744967432223 650.456499358161 205.24233351182596 578.6786702360292C175.47721734932975 506.9008411138975 281.6639590237666 448.33210687350334 293.1932068522922 350.170240476236C304.72245468081775 252.00837407896864 220.92248964286205 136.9844993135368 260.5827230887483 107.50171152914584C300.24295653463463 78.01892374475494 414.63810282185693 172.77152467413094 483.562327392547 208.65285911116018C552.4865519632369 244.53419354818948 574.0398931052478 221.57807104532418 591.4190010280599 279.73211682688657C608.7981089508721 337.8861626084489 599.3473030461668 401.3398406469137 566.982045422045 487.7922788626597 "></path><path d="M567.491591567277 294.7655717059476C582.6983109997377 345.65036176481465 574.4288558331205 401.1723300484713 546.1092554120139 476.81821348724907C517.7896549909074 552.4640969260269 497.49964452959875 641.2979804513109 431.5575095459651 657.8658122120814C365.61537456233134 674.4336439728519 255.63148413275655 619.1494064208127 229.58700749057238 556.3438059389475C203.54253084838814 493.5382054570822 296.4559298135204 442.2905629967373 306.5440216634803 356.39892989912835C316.6321135134401 270.50729680151943 243.30714410522887 169.86140638176659 278.0098483703794 144.0639670704245C312.7125526355299 118.26652775908241 412.80830563684947 201.17505357228646 473.11700213620315 232.57122120468705C533.425698635557 263.9673888370877 552.2848721348164 243.88078164708054 567.491591567277 294.7655717059476C582.6983109997377 345.65036176481465 574.4288558331205 401.1723300484713 546.1092554120139 476.81821348724907 "></path><path d="M543.5642278828614 309.79907236137586C556.5985588249705 353.4146066975477 549.5104543964414 401.0048652263961 525.2365111783502 465.8441938882056C500.96256796025875 530.6835225500151 483.5711304219943 606.8268512859729 427.0493004360226 621.027849938062C370.52747045005077 635.228848590151 276.25556436755807 587.8423592598317 253.93172724568592 534.0089874182329C231.60789012381372 480.1756155766341 311.24794637964135 436.2490648963385 319.89488225103554 362.627665098388C328.54181812242973 289.0062653004374 265.69184434396294 202.7383592263635 295.43701942837765 180.62626838807034C325.18219451279236 158.51417754977712 410.9785542282091 229.5786282468091 462.6717226562266 256.4896290745811C514.3648910842442 283.40062990235305 530.5298969407522 266.18353802520403 543.5642278828614 309.79907236137586C556.5985588249705 353.4146066975477 549.5104543964414 401.0048652263961 525.2365111783502 465.8441938882056 "></path><path d="M519.6368794572347 324.8325730168041C530.4988219089923 361.1788516302806 524.5920682185515 400.837400404321 504.36378220347535 454.87017428916226C484.1354961883992 508.90294817400354 469.64263157317885 572.355722120635 422.541106584869 584.1898876640425C375.4395815965592 596.02405320745 296.87965986114864 556.5353120988507 278.2764622595885 511.67416889751826C259.67326465802836 466.81302569618595 326.0399782045514 430.20756679593956 333.24575809737985 368.8564002976475C340.45153799020835 307.5052337993554 288.076559841486 235.6153120709605 312.864205745165 217.18856970571613C337.65185164884394 198.76182734047183 409.14881807835786 257.9822029213318 452.22645843503915 280.40803694447516C495.30409879172043 302.83387096761845 508.7749370054771 288.48629440332763 519.6368794572347 324.8325730168041C530.4988219089923 361.1788516302806 524.5920682185515 400.837400404321 504.36378220347535 454.87017428916226 "></path><path d="M495.70946999645184 339.8660584134433C504.39902395785793 368.94308130422445 499.6736210055053 400.66992032345684 483.4909921934443 443.89613943132986C467.3083633813834 487.1223585392029 455.7140716892071 537.884577696508 418.0328516985593 547.351910131234C380.35163170791145 556.8192425659599 317.503694319583 525.2282496790805 302.6211362383349 489.33933511801456C287.73857815708675 453.45042055694876 340.8319489943052 424.16605343675167 346.59657290856796 375.085120238118C352.3611968228307 326.00418703948435 310.4612143038529 268.4922496567684 330.29133102679606 253.75085576457292C350.1214477497392 239.00946187237747 407.31902089335034 286.38576233706544 441.78113317869537 304.3264295555801C476.24324546404034 322.26709677409474 487.01991603504575 310.78903552266206 495.70946999645184 339.8660584134433C504.39902395785793 368.94308130422445 499.6736210055053 400.66992032345684 483.4909921934443 443.89613943132986 "></path><path d="M471.7821215708252 354.89952855129343C478.2992870418798 376.7072957193793 474.75523482761525 400.5024249838035 462.6182632185696 432.9220893147083C450.4812916095239 465.34175364561304 441.7855728403917 503.4134180135919 413.5246578474058 510.51391733963646C385.2637428544199 517.6144166656809 338.1277898131736 493.9211720005213 326.9658712522375 467.0044860797219C315.8039526913014 440.0878001589225 355.6239808192152 418.1245248187747 359.94744875491233 381.31382491979946C364.2709166906094 344.5031250208242 332.845929801376 301.3691719837872 347.71851734358336 290.31312656464064C362.59110488579074 279.25708114549406 405.48928474349907 314.78930649401 431.33586895750784 328.244806907896C457.1824531715166 341.700307321782 465.26495609977064 333.0917613832075 471.7821215708252 354.89952855129343C478.2992870418798 376.7072957193793 474.75523482761525 400.5024249838035 462.6182632185696 432.9220893147083 "></path><path d="M447.85474262762045 369.93302920672164C452.1995196083235 384.47154065211225 449.8368181321472 400.3349601617284 441.7455037261167 421.94806971566493C433.65418932008623 443.56117926960144 427.8570434739981 468.942288848254 409.0164334786742 473.675955065617C390.17582348335026 478.40962128297997 358.75185478918604 462.61412483954024 351.310575748562 444.6696675590073C343.8692967079379 426.7252102784744 370.41598212654714 412.08302671837583 373.2982940836785 387.542560119059C376.1806060408099 363.0020935197422 355.230614781321 334.2461248283842 365.14567314279253 326.8754278822865C375.06073150426414 319.5047309361887 403.65951807606973 343.1928811685327 420.89057421874224 352.1632147777901C438.1216303614147 361.13354838704737 443.5099656469174 355.39451776133103 447.85474262762045 369.93302920672164C452.1995196083235 384.47154065211225 449.8368181321472 400.3349601617284 441.7455037261167 421.94806971566493 "></path><path d="M423.9273636844157 384.96649934457173C426.0997521747672 392.23575506726706 424.91840143667906 400.16746482207515 420.8727442336638 410.9740195990434C416.8270870306486 421.78057437601166 413.92851410760454 434.47112916533797 404.5082091099426 436.83796227401945C395.08790411228057 439.2047953827009 379.3759197651985 431.307047160981 375.65528024488646 422.3348185207146C371.9346407245744 413.3625898804481 385.207983433879 406.0414981003989 386.64913941244475 393.7712648007404C388.09029539101044 381.501031501082 377.61529976126593 367.123047155403 382.57282894200176 363.43769868235415C387.53035812273754 359.7523502093053 401.82975140864033 371.5964253254773 410.4452794799766 376.08159213010595C419.06080755131285 380.56675893473465 421.7549751940642 377.69724362187645 423.9273636844157 384.96649934457173C426.0997521747672 392.23575506726706 424.91840143667906 400.16746482207515 420.8727442336638 410.9740195990434 "></path></g></svg>